<?xml version="1.0" encoding="UTF-8" standalone="no"?>
<!DOCTYPE svg PUBLIC "-//W3C//DTD SVG 1.1//EN" "http://www.w3.org/Graphics/SVG/1.1/DTD/svg11.dtd">
<svg version="1.1" xmlns="http://www.w3.org/2000/svg" xmlns:xlink="http://www.w3.org/1999/xlink" preserveAspectRatio="xMidYMid meet" viewBox="0 0 640 640" width="640" height="640"><defs><path d="M480.27 195.44L480.43 196.72L480.64 197.99L480.92 199.23L481.25 200.45L481.63 201.65L482.07 202.82L482.56 203.97L483.11 205.09L483.7 206.18L484.34 207.24L485.03 208.27L485.76 209.26L486.54 210.23L487.35 211.15L488.21 212.04L489.11 212.89L490.05 213.69L491.02 214.46L492.03 215.18L493.07 215.86L494.15 216.49L495.25 217.08L496.39 217.61L497.55 218.1L498.74 218.53L499.95 218.91L501.19 219.24L502.45 219.51L503.73 219.72L505.03 219.88L506.35 219.97L507.68 220L507.68 318.55L506.35 318.58L505.03 318.68L503.73 318.83L502.45 319.04L501.19 319.31L499.95 319.64L498.74 320.02L497.55 320.45L496.39 320.94L495.25 321.47L494.15 322.06L493.07 322.69L492.03 323.37L491.02 324.09L490.05 324.86L489.11 325.67L488.21 326.51L487.35 327.4L486.54 328.33L485.76 329.29L485.03 330.28L484.34 331.31L483.7 332.37L483.11 333.46L482.56 334.58L482.07 335.73L481.63 336.9L481.25 338.1L480.92 339.32L480.64 340.56L480.43 341.83L480.27 343.11L480.18 344.41L480.14 345.72L175.07 345.72L175.04 344.41L174.95 343.11L174.79 341.83L174.58 340.56L174.3 339.32L173.97 338.1L173.59 336.9L173.15 335.73L172.65 334.58L172.11 333.46L171.52 332.37L170.88 331.31L170.19 330.28L169.46 329.29L168.68 328.33L167.86 327.4L167 326.51L166.1 325.67L165.17 324.86L164.19 324.09L163.19 323.37L162.14 322.69L161.07 322.06L159.96 321.47L158.83 320.94L157.67 320.45L156.48 320.02L155.26 319.64L154.03 319.31L152.77 319.04L151.49 318.83L150.19 318.68L148.87 318.58L147.54 318.55L147.54 220L148.87 219.97L150.19 219.88L151.49 219.72L152.77 219.51L154.03 219.24L155.26 218.91L156.48 218.53L157.67 218.1L158.83 217.61L159.96 217.08L161.07 216.49L162.14 215.86L163.19 215.18L164.19 214.46L165.17 213.69L166.1 212.89L167 212.04L167.86 211.15L168.68 210.23L169.46 209.26L170.19 208.27L170.88 207.24L171.52 206.18L172.11 205.09L172.65 203.97L173.15 202.82L173.59 201.65L173.97 200.45L174.3 199.23L174.58 197.99L174.79 196.72L174.95 195.44L175.04 194.14L175.07 192.83L480.14 192.83L480.18 194.14L480.27 195.44Z" id="fqYtsw4Kr"></path></defs><g><g><g><use xlink:href="#fqYtsw4Kr" opacity="1" fill="#b22d0c" fill-opacity="1"></use></g></g></g></svg>